<svg width="47" height="48" viewBox="0 0 47 48" fill="none" xmlns="http://www.w3.org/2000/svg">
<g clip-path="url(#clip0_4808_44)">
<rect width="47" height="48" fill="#E7D4BE" fill-opacity="0.44"/>
<path d="M40.9744 0H6.02564C2.69777 0 0 2.75517 0 6.15385V41.8462C0 45.2448 2.69777 48 6.02564 48H40.9744C44.3022 48 47 45.2448 47 41.8462V6.15385C47 2.75517 44.3022 0 40.9744 0Z" fill="#010932" fill-opacity="0.05"/>
<path d="M14.2606 16.2054H33.9444C34.7879 16.2054 35.3504 15.631 35.3504 14.7694C35.3504 13.9079 34.7879 13.3335 33.9444 13.3335H14.2606C13.417 13.3335 12.8546 13.9079 12.8546 14.7694C12.8546 15.631 13.417 16.2054 14.2606 16.2054Z" fill="#010932"/>
<path d="M14.2606 24.8206H33.9444C34.7879 24.8206 35.3504 24.2462 35.3504 23.3847C35.3504 22.5231 34.7879 21.9487 33.9444 21.9487H14.2606C13.417 21.9487 12.8546 22.5231 12.8546 23.3847C12.8546 24.2462 13.417 24.8206 14.2606 24.8206Z" fill="#010932"/>
<path d="M14.2606 33.4358H33.9444C34.7879 33.4358 35.3504 32.8614 35.3504 31.9999C35.3504 31.1384 34.7879 30.564 33.9444 30.564H14.2606C13.417 30.564 12.8546 31.1384 12.8546 31.9999C12.8546 32.8614 13.417 33.4358 14.2606 33.4358Z" fill="#010932"/>
</g>
<defs>
<clipPath id="clip0_4808_44">
<rect width="47" height="48" fill="white"/>
</clipPath>
</defs>
</svg>
